<svg width="400" height="400" viewBox="0 0 400 400" fill="none" xmlns="http://www.w3.org/2000/svg">
<rect width="400" height="400" rx="40" fill="#164644"/>
<g clip-path="url(#clip0_18_110)">
<rect x="50" y="17" width="300" height="300" rx="150" fill="#164644"/>
<path d="M240.928 220.452L159.351 291.59C155.262 295.156 154.721 301.412 158.872 304.905C183.334 325.495 224.83 325.519 249.508 321.906C254.191 321.221 257.5 317.11 257.5 312.378V227.989C257.5 219.405 247.397 214.81 240.928 220.452Z" fill="#FFD4BB"/>
<path d="M146.489 115.736L110.676 226.087C109.338 230.209 105.498 233 101.164 233H47.0443C40.7846 233 36.0637 227.314 37.2148 221.161L59.0252 104.578C59.722 100.853 62.4594 97.8012 66.1587 96.9815C96.3242 90.2975 125.882 97.7845 141.695 104.46C146.06 106.303 147.952 111.23 146.489 115.736Z" fill="#FFD4BB"/>
<path d="M276.218 58.6774L270.415 26.5889C269.381 20.8706 273.422 15.478 279.201 14.8651L300.166 12.6415C301.051 12.5476 301.92 12.3358 302.75 12.0118L329.746 1.4665C332.154 0.525609 334.834 0.554372 337.222 1.54676L360.175 11.0859C366.182 13.5822 368.205 21.0558 364.76 26.5733C358.097 37.2435 354.851 45.7182 353.529 51.9216C352.282 57.7685 348.473 64.4984 342.744 66.2062L305.859 77.2007C303.09 78.0262 300.098 77.6132 297.656 76.0681L280.712 65.3485C278.346 63.8519 276.716 61.4321 276.218 58.6774Z" fill="#9AEBE8"/>
<path d="M160.095 106.169L154.688 92.5223C153.339 89.1184 153.959 85.2495 156.303 82.4368L212.002 15.5982C213.901 13.3182 216.716 12 219.684 12H236.467C241.159 12 245.22 15.2623 246.232 19.8441L251.894 45.4924C252.589 48.6362 251.727 51.9218 249.579 54.32L203.93 105.287C202.36 107.04 200.223 108.182 197.895 108.515L170.806 112.385C166.228 113.039 161.799 110.468 160.095 106.169Z" fill="#FFD4BB"/>
<path d="M232.73 96.4445L258.007 71.8247C261.691 68.2357 267.498 68.0274 271.43 71.343L286.987 84.4595C288.923 86.092 290.168 88.3985 290.47 90.9132L296.942 144.853C297.296 147.798 296.324 150.747 294.29 152.905L288.62 158.918C284.547 163.238 277.63 163.078 273.76 158.575L232.124 110.126C228.682 106.12 228.947 100.129 232.73 96.4445Z" fill="#FF8E3C"/>
<path d="M165.917 136.404L129.04 223.199C127.762 226.207 128.034 229.65 129.77 232.42L144.407 255.776C147.628 260.917 154.647 262.028 159.299 258.134L252.203 180.364C256.854 176.471 256.996 169.367 252.504 165.291L210.701 127.358C208.371 125.244 205.182 124.35 202.093 124.944L173.232 130.494C169.962 131.123 167.219 133.338 165.917 136.404Z" fill="#9AEBE8"/>
<path d="M310.712 153.478L305.495 104.79C304.935 99.5601 308.521 94.7904 313.701 93.8764L352.734 86.9881C354.543 86.6689 356.405 86.8541 358.116 87.5235L367.992 91.3883C373.579 93.5745 375.997 100.154 373.156 105.437L348.452 151.37C347.202 153.695 345.083 155.431 342.557 156.2L323.567 161.98C317.563 163.807 311.38 159.718 310.712 153.478Z" fill="#FFD4BB"/>
<path d="M129.776 83.5596L92.1084 80.0482C84.5886 79.3472 80.5301 70.883 84.6919 64.5808L107.732 29.6919C109.474 27.0543 112.36 25.3955 115.516 25.2182L148.007 23.3929C152.205 23.157 156.103 25.5729 157.759 29.4379L164.355 44.8281C165.955 48.561 165.138 52.8906 162.288 55.7842L137.829 80.6197C135.722 82.759 132.766 83.8383 129.776 83.5596Z" fill="#FF8E3C"/>
<path d="M107.265 251H56.9716C52.5879 251 48.7152 253.855 47.4189 258.043L31.0113 311.043C29.0195 317.477 33.8287 324 40.564 324H131C136.523 324 141 319.523 141 314V288.759C141 286.376 140.149 284.071 138.601 282.26L114.866 254.501C112.966 252.279 110.189 251 107.265 251Z" fill="#FF8E3C"/>
<path d="M340.062 172.377L286.645 180.993C284.599 181.323 282.706 182.28 281.228 183.733L266.625 198.084C261.186 203.429 263.491 212.651 270.806 214.808L328.118 231.708C330.901 232.528 333.903 232.1 336.346 230.533L355.61 218.174C357.785 216.779 359.336 214.596 359.937 212.083L363.291 198.054C364.049 194.886 363.216 191.547 361.059 189.106L349.148 175.628C346.877 173.058 343.448 171.831 340.062 172.377Z" fill="#FF8E3C"/>
<path d="M333.196 250.179L289.832 236.396C283.156 234.274 276.424 239.497 276.819 246.491L280.415 310.132C280.724 315.6 285.375 319.803 290.846 319.558L351.159 316.856C355.78 316.649 359.656 313.3 360.531 308.758L365.596 282.466C365.862 281.085 365.834 279.663 365.513 278.294L360.847 258.369C359.788 253.847 355.755 250.649 351.11 250.649H336.225C335.197 250.649 334.175 250.491 333.196 250.179Z" fill="#9AEBE8"/>
<path d="M55.0877 88.7418L38.521 90.2949C34.0705 90.7121 29.8837 88.1251 28.2657 83.9582L-0.211509 10.6197C-2.75666 4.06504 2.07896 -3 9.1104 -3H85C90.5229 -3 95 1.47715 95 7V25.1092C95 28.1951 93.5753 31.1081 91.1394 33.0027L71.2236 48.4927C69.1574 50.0998 67.8036 52.453 67.4531 55.0471L64.0642 80.1246C63.4411 84.7355 59.7202 88.3075 55.0877 88.7418Z" fill="#9AEBE8"/>
</g>
<mask id="path-15-outside-1_18_110" maskUnits="userSpaceOnUse" x="61" y="331" width="284" height="51" fill="black">
<rect fill="white" x="61" y="331" width="284" height="51"/>
<path d="M85.0406 336.016C88.7366 336.016 91.9846 336.763 94.7846 338.256C97.6219 339.712 99.8059 341.859 101.337 344.696C102.905 347.496 103.689 350.875 103.689 354.832V376H92.6006V367.32H77.3126V376H66.3926V354.832C66.3926 350.875 67.1579 347.496 68.6886 344.696C70.2566 341.859 72.4406 339.712 75.2406 338.256C78.0779 336.763 81.3446 336.016 85.0406 336.016ZM92.6006 358.752V353.88C92.6006 351.005 91.9099 348.84 90.5286 347.384C89.1473 345.928 87.2993 345.2 84.9846 345.2C82.6326 345.2 80.7659 345.928 79.3846 347.384C78.0033 348.84 77.3126 351.005 77.3126 353.88V358.752H92.6006ZM151.286 336.8V376H140.198V360.712H125.078V376H113.99V336.8H125.078V351.528H140.198V336.8H151.286ZM177.531 345.368V367.432H183.859V376H160.059V367.432H166.443V345.368H160.059V336.8H183.859V345.368H177.531ZM238.516 336.016C243.145 336.016 246.748 337.397 249.324 340.16C251.937 342.885 253.244 346.843 253.244 352.032V376H242.156V352.368C242.156 350.016 241.54 348.243 240.308 347.048C239.076 345.816 237.433 345.2 235.38 345.2C233.177 345.2 231.423 345.853 230.116 347.16C228.847 348.429 228.212 350.352 228.212 352.928V376H217.124V352.368C217.124 350.016 216.545 348.243 215.388 347.048C214.268 345.816 212.719 345.2 210.74 345.2C208.612 345.2 206.913 345.853 205.644 347.16C204.375 348.429 203.74 350.352 203.74 352.928V376H192.652V336.8H203.404V341.168C204.599 339.488 206.129 338.219 207.996 337.36C209.9 336.464 212.103 336.016 214.604 336.016C217.18 336.016 219.42 336.483 221.324 337.416C223.265 338.349 224.833 339.712 226.028 341.504C227.372 339.712 229.127 338.349 231.292 337.416C233.457 336.483 235.865 336.016 238.516 336.016ZM277.369 376.784C274.195 376.784 271.115 376.392 268.129 375.608C265.142 374.824 262.715 373.779 260.849 372.472L264.489 364.296C266.243 365.453 268.278 366.387 270.593 367.096C272.907 367.805 275.185 368.16 277.425 368.16C281.681 368.16 283.809 367.096 283.809 364.968C283.809 363.848 283.193 363.027 281.961 362.504C280.766 361.944 278.825 361.365 276.137 360.768C273.187 360.133 270.723 359.461 268.745 358.752C266.766 358.005 265.067 356.829 263.649 355.224C262.23 353.619 261.521 351.453 261.521 348.728C261.521 346.339 262.174 344.192 263.481 342.288C264.787 340.347 266.729 338.816 269.305 337.696C271.918 336.576 275.11 336.016 278.881 336.016C281.457 336.016 283.995 336.315 286.497 336.912C288.998 337.472 291.201 338.312 293.105 339.432L289.689 347.664C285.955 345.648 282.334 344.64 278.825 344.64C276.622 344.64 275.017 344.976 274.009 345.648C273.001 346.283 272.497 347.123 272.497 348.168C272.497 349.213 273.094 349.997 274.289 350.52C275.483 351.043 277.406 351.584 280.057 352.144C283.043 352.779 285.507 353.469 287.449 354.216C289.427 354.925 291.126 356.083 292.545 357.688C294.001 359.256 294.729 361.403 294.729 364.128C294.729 366.48 294.075 368.608 292.769 370.512C291.462 372.416 289.502 373.947 286.889 375.104C284.275 376.224 281.102 376.784 277.369 376.784ZM320.962 336.016C324.658 336.016 327.906 336.763 330.706 338.256C333.544 339.712 335.728 341.859 337.258 344.696C338.826 347.496 339.61 350.875 339.61 354.832V376H328.522V367.32H313.234V376H302.314V354.832C302.314 350.875 303.08 347.496 304.61 344.696C306.178 341.859 308.362 339.712 311.162 338.256C314 336.763 317.266 336.016 320.962 336.016ZM328.522 358.752V353.88C328.522 351.005 327.832 348.84 326.45 347.384C325.069 345.928 323.221 345.2 320.906 345.2C318.554 345.2 316.688 345.928 315.306 347.384C313.925 348.84 313.234 351.005 313.234 353.88V358.752H328.522Z"/>
</mask>
<path d="M85.0406 336.016C88.7366 336.016 91.9846 336.763 94.7846 338.256C97.6219 339.712 99.8059 341.859 101.337 344.696C102.905 347.496 103.689 350.875 103.689 354.832V376H92.6006V367.32H77.3126V376H66.3926V354.832C66.3926 350.875 67.1579 347.496 68.6886 344.696C70.2566 341.859 72.4406 339.712 75.2406 338.256C78.0779 336.763 81.3446 336.016 85.0406 336.016ZM92.6006 358.752V353.88C92.6006 351.005 91.9099 348.84 90.5286 347.384C89.1473 345.928 87.2993 345.2 84.9846 345.2C82.6326 345.2 80.7659 345.928 79.3846 347.384C78.0033 348.84 77.3126 351.005 77.3126 353.88V358.752H92.6006ZM151.286 336.8V376H140.198V360.712H125.078V376H113.99V336.8H125.078V351.528H140.198V336.8H151.286ZM177.531 345.368V367.432H183.859V376H160.059V367.432H166.443V345.368H160.059V336.8H183.859V345.368H177.531ZM238.516 336.016C243.145 336.016 246.748 337.397 249.324 340.16C251.937 342.885 253.244 346.843 253.244 352.032V376H242.156V352.368C242.156 350.016 241.54 348.243 240.308 347.048C239.076 345.816 237.433 345.2 235.38 345.2C233.177 345.2 231.423 345.853 230.116 347.16C228.847 348.429 228.212 350.352 228.212 352.928V376H217.124V352.368C217.124 350.016 216.545 348.243 215.388 347.048C214.268 345.816 212.719 345.2 210.74 345.2C208.612 345.2 206.913 345.853 205.644 347.16C204.375 348.429 203.74 350.352 203.74 352.928V376H192.652V336.8H203.404V341.168C204.599 339.488 206.129 338.219 207.996 337.36C209.9 336.464 212.103 336.016 214.604 336.016C217.18 336.016 219.42 336.483 221.324 337.416C223.265 338.349 224.833 339.712 226.028 341.504C227.372 339.712 229.127 338.349 231.292 337.416C233.457 336.483 235.865 336.016 238.516 336.016ZM277.369 376.784C274.195 376.784 271.115 376.392 268.129 375.608C265.142 374.824 262.715 373.779 260.849 372.472L264.489 364.296C266.243 365.453 268.278 366.387 270.593 367.096C272.907 367.805 275.185 368.16 277.425 368.16C281.681 368.16 283.809 367.096 283.809 364.968C283.809 363.848 283.193 363.027 281.961 362.504C280.766 361.944 278.825 361.365 276.137 360.768C273.187 360.133 270.723 359.461 268.745 358.752C266.766 358.005 265.067 356.829 263.649 355.224C262.23 353.619 261.521 351.453 261.521 348.728C261.521 346.339 262.174 344.192 263.481 342.288C264.787 340.347 266.729 338.816 269.305 337.696C271.918 336.576 275.11 336.016 278.881 336.016C281.457 336.016 283.995 336.315 286.497 336.912C288.998 337.472 291.201 338.312 293.105 339.432L289.689 347.664C285.955 345.648 282.334 344.64 278.825 344.64C276.622 344.64 275.017 344.976 274.009 345.648C273.001 346.283 272.497 347.123 272.497 348.168C272.497 349.213 273.094 349.997 274.289 350.52C275.483 351.043 277.406 351.584 280.057 352.144C283.043 352.779 285.507 353.469 287.449 354.216C289.427 354.925 291.126 356.083 292.545 357.688C294.001 359.256 294.729 361.403 294.729 364.128C294.729 366.48 294.075 368.608 292.769 370.512C291.462 372.416 289.502 373.947 286.889 375.104C284.275 376.224 281.102 376.784 277.369 376.784ZM320.962 336.016C324.658 336.016 327.906 336.763 330.706 338.256C333.544 339.712 335.728 341.859 337.258 344.696C338.826 347.496 339.61 350.875 339.61 354.832V376H328.522V367.32H313.234V376H302.314V354.832C302.314 350.875 303.08 347.496 304.61 344.696C306.178 341.859 308.362 339.712 311.162 338.256C314 336.763 317.266 336.016 320.962 336.016ZM328.522 358.752V353.88C328.522 351.005 327.832 348.84 326.45 347.384C325.069 345.928 323.221 345.2 320.906 345.2C318.554 345.2 316.688 345.928 315.306 347.384C313.925 348.84 313.234 351.005 313.234 353.88V358.752H328.522Z" fill="#FFD4BB"/>
<path d="M94.7846 338.256L92.4317 342.668L92.4666 342.686L92.5018 342.704L94.7846 338.256ZM101.337 344.696L96.9361 347.07L96.9548 347.105L96.9741 347.139L101.337 344.696ZM103.689 376V381H108.689V376H103.689ZM92.6006 376H87.6006V381H92.6006V376ZM92.6006 367.32H97.6006V362.32H92.6006V367.32ZM77.3126 367.32V362.32H72.3126V367.32H77.3126ZM77.3126 376V381H82.3126V376H77.3126ZM66.3926 376H61.3926V381H66.3926V376ZM68.6886 344.696L64.3124 342.278L64.3068 342.288L64.3014 342.298L68.6886 344.696ZM75.2406 338.256L77.5474 342.692L77.5584 342.686L77.5693 342.681L75.2406 338.256ZM92.6006 358.752V363.752H97.6006V358.752H92.6006ZM90.5286 347.384L94.1559 343.943V343.943L90.5286 347.384ZM79.3846 347.384L75.7573 343.943L75.7573 343.943L79.3846 347.384ZM77.3126 358.752H72.3126V363.752H77.3126V358.752ZM85.0406 341.016C88.0516 341.016 90.4667 341.62 92.4317 342.668L97.1375 333.844C93.5025 331.906 89.4216 331.016 85.0406 331.016V341.016ZM92.5018 342.704C94.4293 343.694 95.8798 345.112 96.9361 347.07L105.737 342.322C103.732 338.605 100.815 335.73 97.0674 333.808L92.5018 342.704ZM96.9741 347.139C98.0372 349.037 98.6886 351.533 98.6886 354.832H108.689C108.689 350.217 107.772 345.955 105.699 342.253L96.9741 347.139ZM98.6886 354.832V376H108.689V354.832H98.6886ZM103.689 371H92.6006V381H103.689V371ZM97.6006 376V367.32H87.6006V376H97.6006ZM92.6006 362.32H77.3126V372.32H92.6006V362.32ZM72.3126 367.32V376H82.3126V367.32H72.3126ZM77.3126 371H66.3926V381H77.3126V371ZM71.3926 376V354.832H61.3926V376H71.3926ZM71.3926 354.832C71.3926 351.514 72.0327 349.002 73.0758 347.094L64.3014 342.298C62.2831 345.99 61.3926 350.235 61.3926 354.832H71.3926ZM73.0648 347.114C74.1704 345.114 75.6456 343.681 77.5474 342.692L72.9338 333.82C69.2356 335.743 66.3428 338.603 64.3124 342.278L73.0648 347.114ZM77.5693 342.681C79.5859 341.619 82.0314 341.016 85.0406 341.016V331.016C80.6578 331.016 76.57 331.906 72.9119 333.831L77.5693 342.681ZM97.6006 358.752V353.88H87.6006V358.752H97.6006ZM97.6006 353.88C97.6006 350.277 96.737 346.663 94.1559 343.943L86.9013 350.825C87.0829 351.017 87.6006 351.733 87.6006 353.88H97.6006ZM94.1559 343.943C91.6832 341.336 88.4412 340.2 84.9846 340.2V350.2C86.1573 350.2 86.6113 350.52 86.9013 350.825L94.1559 343.943ZM84.9846 340.2C81.5173 340.2 78.2458 341.32 75.7573 343.943L83.0119 350.825C83.2861 350.536 83.7479 350.2 84.9846 350.2V340.2ZM75.7573 343.943C73.1762 346.663 72.3126 350.277 72.3126 353.88H82.3126C82.3126 351.733 82.8303 351.017 83.0119 350.825L75.7573 343.943ZM72.3126 353.88V358.752H82.3126V353.88H72.3126ZM77.3126 363.752H92.6006V353.752H77.3126V363.752ZM151.286 336.8H156.286V331.8H151.286V336.8ZM151.286 376V381H156.286V376H151.286ZM140.198 376H135.198V381H140.198V376ZM140.198 360.712H145.198V355.712H140.198V360.712ZM125.078 360.712V355.712H120.078V360.712H125.078ZM125.078 376V381H130.078V376H125.078ZM113.99 376H108.99V381H113.99V376ZM113.99 336.8V331.8H108.99V336.8H113.99ZM125.078 336.8H130.078V331.8H125.078V336.8ZM125.078 351.528H120.078V356.528H125.078V351.528ZM140.198 351.528V356.528H145.198V351.528H140.198ZM140.198 336.8V331.8H135.198V336.8H140.198ZM146.286 336.8V376H156.286V336.8H146.286ZM151.286 371H140.198V381H151.286V371ZM145.198 376V360.712H135.198V376H145.198ZM140.198 355.712H125.078V365.712H140.198V355.712ZM120.078 360.712V376H130.078V360.712H120.078ZM125.078 371H113.99V381H125.078V371ZM118.99 376V336.8H108.99V376H118.99ZM113.99 341.8H125.078V331.8H113.99V341.8ZM120.078 336.8V351.528H130.078V336.8H120.078ZM125.078 356.528H140.198V346.528H125.078V356.528ZM145.198 351.528V336.8H135.198V351.528H145.198ZM140.198 341.8H151.286V331.8H140.198V341.8ZM177.531 345.368V340.368H172.531V345.368H177.531ZM177.531 367.432H172.531V372.432H177.531V367.432ZM183.859 367.432H188.859V362.432H183.859V367.432ZM183.859 376V381H188.859V376H183.859ZM160.059 376H155.059V381H160.059V376ZM160.059 367.432V362.432H155.059V367.432H160.059ZM166.443 367.432V372.432H171.443V367.432H166.443ZM166.443 345.368H171.443V340.368H166.443V345.368ZM160.059 345.368H155.059V350.368H160.059V345.368ZM160.059 336.8V331.8H155.059V336.8H160.059ZM183.859 336.8H188.859V331.8H183.859V336.8ZM183.859 345.368V350.368H188.859V345.368H183.859ZM172.531 345.368V367.432H182.531V345.368H172.531ZM177.531 372.432H183.859V362.432H177.531V372.432ZM178.859 367.432V376H188.859V367.432H178.859ZM183.859 371H160.059V381H183.859V371ZM165.059 376V367.432H155.059V376H165.059ZM160.059 372.432H166.443V362.432H160.059V372.432ZM171.443 367.432V345.368H161.443V367.432H171.443ZM166.443 340.368H160.059V350.368H166.443V340.368ZM165.059 345.368V336.8H155.059V345.368H165.059ZM160.059 341.8H183.859V331.8H160.059V341.8ZM178.859 336.8V345.368H188.859V336.8H178.859ZM183.859 340.368H177.531V350.368H183.859V340.368ZM249.324 340.16L245.667 343.57L245.691 343.595L245.715 343.621L249.324 340.16ZM253.244 376V381H258.244V376H253.244ZM242.156 376H237.156V381H242.156V376ZM240.308 347.048L236.772 350.584L236.8 350.611L236.827 350.638L240.308 347.048ZM230.116 347.16L226.58 343.624V343.624L230.116 347.16ZM228.212 376V381H233.212V376H228.212ZM217.124 376H212.124V381H217.124V376ZM215.388 347.048L211.688 350.411L211.742 350.47L211.797 350.527L215.388 347.048ZM205.644 347.16L209.18 350.696L209.205 350.67L209.23 350.644L205.644 347.16ZM203.74 376V381H208.74V376H203.74ZM192.652 376H187.652V381H192.652V376ZM192.652 336.8V331.8H187.652V336.8H192.652ZM203.404 336.8H208.404V331.8H203.404V336.8ZM203.404 341.168H198.404V356.827L207.479 344.066L203.404 341.168ZM207.996 337.36L210.086 341.902L210.105 341.893L210.125 341.884L207.996 337.36ZM221.324 337.416L219.123 341.906L219.14 341.914L219.158 341.922L221.324 337.416ZM226.028 341.504L221.868 344.277L225.788 350.158L230.028 344.504L226.028 341.504ZM231.292 337.416L233.271 342.008V342.008L231.292 337.416ZM238.516 341.016C242.095 341.016 244.244 342.044 245.667 343.57L252.981 336.75C249.252 332.751 244.196 331.016 238.516 331.016V341.016ZM245.715 343.621C247.146 345.113 248.244 347.642 248.244 352.032H258.244C258.244 346.043 256.729 340.658 252.933 336.699L245.715 343.621ZM248.244 352.032V376H258.244V352.032H248.244ZM253.244 371H242.156V381H253.244V371ZM247.156 376V352.368H237.156V376H247.156ZM247.156 352.368C247.156 349.178 246.308 345.902 243.789 343.458L236.827 350.638C236.831 350.641 236.895 350.695 236.971 350.915C237.056 351.16 237.156 351.615 237.156 352.368H247.156ZM243.844 343.512C241.508 341.177 238.505 340.2 235.38 340.2V350.2C236.362 350.2 236.644 350.455 236.772 350.584L243.844 343.512ZM235.38 340.2C232.124 340.2 229.002 341.203 226.58 343.624L233.652 350.696C233.844 350.503 234.23 350.2 235.38 350.2V340.2ZM226.58 343.624C224.031 346.174 223.212 349.606 223.212 352.928H233.212C233.212 352.035 233.324 351.461 233.436 351.121C233.54 350.806 233.636 350.711 233.652 350.696L226.58 343.624ZM223.212 352.928V376H233.212V352.928H223.212ZM228.212 371H217.124V381H228.212V371ZM222.124 376V352.368H212.124V376H222.124ZM222.124 352.368C222.124 349.258 221.357 346.024 218.979 343.569L211.797 350.527C211.798 350.528 211.81 350.54 211.832 350.577C211.854 350.615 211.893 350.692 211.937 350.825C212.026 351.1 212.124 351.588 212.124 352.368H222.124ZM219.088 343.685C216.842 341.214 213.838 340.2 210.74 340.2V350.2C211.212 350.2 211.451 350.273 211.539 350.308C211.607 350.336 211.641 350.359 211.688 350.411L219.088 343.685ZM210.74 340.2C207.507 340.2 204.427 341.237 202.058 343.676L209.23 350.644C209.399 350.47 209.717 350.2 210.74 350.2V340.2ZM202.108 343.624C199.559 346.174 198.74 349.606 198.74 352.928H208.74C208.74 352.035 208.852 351.461 208.964 351.121C209.068 350.806 209.164 350.711 209.18 350.696L202.108 343.624ZM198.74 352.928V376H208.74V352.928H198.74ZM203.74 371H192.652V381H203.74V371ZM197.652 376V336.8H187.652V376H197.652ZM192.652 341.8H203.404V331.8H192.652V341.8ZM198.404 336.8V341.168H208.404V336.8H198.404ZM207.479 344.066C208.169 343.096 209.016 342.395 210.086 341.902L205.906 332.818C203.243 334.043 201.029 335.88 199.329 338.27L207.479 344.066ZM210.125 341.884C211.249 341.355 212.701 341.016 214.604 341.016V331.016C211.504 331.016 208.551 331.573 205.867 332.836L210.125 341.884ZM214.604 341.016C216.578 341.016 218.036 341.373 219.123 341.906L223.525 332.926C220.804 331.593 217.782 331.016 214.604 331.016V341.016ZM219.158 341.922C220.291 342.467 221.17 343.231 221.868 344.277L230.188 338.73C228.496 336.193 226.24 334.231 223.49 332.91L219.158 341.922ZM230.028 344.504C230.821 343.447 231.863 342.615 233.271 342.008L229.313 332.824C226.39 334.084 223.923 335.977 222.028 338.504L230.028 344.504ZM233.271 342.008C234.738 341.375 236.462 341.016 238.516 341.016V331.016C235.269 331.016 232.176 331.59 229.313 332.824L233.271 342.008ZM268.129 375.608L269.398 370.772L268.129 375.608ZM260.849 372.472L256.281 370.438L254.604 374.204L257.981 376.568L260.849 372.472ZM264.489 364.296L267.242 360.122L262.319 356.875L259.921 362.262L264.489 364.296ZM270.593 367.096L272.058 362.315L270.593 367.096ZM281.961 362.504L279.838 367.031L279.923 367.071L280.008 367.107L281.961 362.504ZM276.137 360.768L277.221 355.887L277.205 355.883L277.189 355.88L276.137 360.768ZM268.745 358.752L266.979 363.43L267.018 363.445L267.057 363.459L268.745 358.752ZM263.481 342.288L267.603 345.117L267.616 345.099L267.629 345.08L263.481 342.288ZM269.305 337.696L267.335 333.1L267.323 333.105L267.311 333.111L269.305 337.696ZM286.497 336.912L285.335 341.775L285.37 341.783L285.404 341.791L286.497 336.912ZM293.105 339.432L297.723 341.348L299.391 337.329L295.64 335.122L293.105 339.432ZM289.689 347.664L287.313 352.064L292.185 354.694L294.307 349.58L289.689 347.664ZM274.009 345.648L276.673 349.879L276.728 349.844L276.782 349.808L274.009 345.648ZM274.289 350.52L272.285 355.101L274.289 350.52ZM280.057 352.144L281.096 347.253L281.09 347.252L280.057 352.144ZM287.449 354.216L285.654 358.883L285.707 358.903L285.761 358.923L287.449 354.216ZM292.545 357.688L288.798 360.999L288.839 361.045L288.881 361.09L292.545 357.688ZM292.769 370.512L288.646 367.683V367.683L292.769 370.512ZM286.889 375.104L288.858 379.7L288.886 379.688L288.913 379.676L286.889 375.104ZM277.369 371.784C274.612 371.784 271.959 371.444 269.398 370.772L266.859 380.444C270.272 381.34 273.779 381.784 277.369 381.784V371.784ZM269.398 370.772C266.794 370.088 264.96 369.246 263.716 368.376L257.981 376.568C260.471 378.311 263.49 379.56 266.859 380.444L269.398 370.772ZM265.416 374.506L269.056 366.33L259.921 362.262L256.281 370.438L265.416 374.506ZM261.736 368.47C263.944 369.926 266.425 371.048 269.128 371.877L272.058 362.315C270.131 361.725 268.543 360.981 267.242 360.122L261.736 368.47ZM269.128 371.877C271.879 372.72 274.65 373.16 277.425 373.16V363.16C275.72 363.16 273.936 362.891 272.058 362.315L269.128 371.877ZM277.425 373.16C279.808 373.16 282.34 372.889 284.449 371.834C285.574 371.272 286.718 370.416 287.57 369.138C288.443 367.829 288.809 366.375 288.809 364.968H278.809C278.809 364.625 278.909 364.102 279.249 363.591C279.569 363.111 279.915 362.92 279.977 362.89C280.018 362.869 279.866 362.95 279.396 363.029C278.939 363.105 278.294 363.16 277.425 363.16V373.16ZM288.809 364.968C288.809 363.43 288.364 361.868 287.347 360.512C286.372 359.213 285.101 358.405 283.913 357.901L280.008 367.107C280.052 367.126 279.705 366.99 279.347 366.512C278.946 365.977 278.809 365.386 278.809 364.968H288.809ZM284.083 357.977C282.362 357.17 279.968 356.498 277.221 355.887L275.052 365.649C277.681 366.233 279.17 366.718 279.838 367.031L284.083 357.977ZM277.189 355.88C274.371 355.273 272.135 354.656 270.432 354.045L267.057 363.459C269.311 364.267 272.004 364.993 275.085 365.656L277.189 355.88ZM270.51 354.074C269.303 353.619 268.282 352.916 267.395 351.913L259.902 358.535C261.853 360.742 264.229 362.392 266.979 363.43L270.51 354.074ZM267.395 351.913C266.985 351.449 266.521 350.576 266.521 348.728H256.521C256.521 352.331 257.475 355.788 259.902 358.535L267.395 351.913ZM266.521 348.728C266.521 347.312 266.889 346.158 267.603 345.117L259.358 339.459C257.459 342.226 256.521 345.366 256.521 348.728H266.521ZM267.629 345.08C268.304 344.076 269.42 343.098 271.298 342.281L267.311 333.111C264.038 334.534 261.27 336.618 259.333 339.496L267.629 345.08ZM271.274 342.292C273.098 341.51 275.578 341.016 278.881 341.016V331.016C274.642 331.016 270.738 331.642 267.335 333.1L271.274 342.292ZM278.881 341.016C281.066 341.016 283.215 341.269 285.335 341.775L287.658 332.049C284.776 331.36 281.847 331.016 278.881 331.016V341.016ZM285.404 341.791C287.478 342.255 289.179 342.924 290.57 343.742L295.64 335.122C293.222 333.7 290.518 332.689 287.589 332.033L285.404 341.791ZM288.486 337.516L285.07 345.748L294.307 349.58L297.723 341.348L288.486 337.516ZM292.064 343.264C287.753 340.936 283.32 339.64 278.825 339.64V349.64C281.348 349.64 284.158 350.36 287.313 352.064L292.064 343.264ZM278.825 339.64C276.333 339.64 273.498 339.979 271.235 341.488L276.782 349.808C276.604 349.927 276.607 349.867 276.993 349.786C277.367 349.708 277.958 349.64 278.825 349.64V339.64ZM271.345 341.417C269.122 342.816 267.497 345.14 267.497 348.168H277.497C277.497 348.488 277.408 348.917 277.162 349.326C276.933 349.709 276.691 349.868 276.673 349.879L271.345 341.417ZM267.497 348.168C267.497 349.715 267.964 351.253 268.967 352.57C269.921 353.822 271.152 354.605 272.285 355.101L276.293 345.939C276.231 345.912 276.565 346.042 276.922 346.51C277.328 347.043 277.497 347.667 277.497 348.168H267.497ZM272.285 355.101C273.973 355.839 276.315 356.464 279.023 357.036L281.09 347.252C278.497 346.704 276.994 346.246 276.293 345.939L272.285 355.101ZM279.017 357.035C281.854 357.638 284.043 358.263 285.654 358.883L289.244 349.549C286.972 348.676 284.233 347.92 281.096 347.253L279.017 357.035ZM285.761 358.923C286.931 359.342 287.926 360.012 288.798 360.999L296.291 354.377C294.326 352.153 291.923 350.509 289.136 349.509L285.761 358.923ZM288.881 361.09C289.262 361.501 289.729 362.306 289.729 364.128H299.729C299.729 360.499 298.74 357.011 296.209 354.286L288.881 361.09ZM289.729 364.128C289.729 365.49 289.37 366.628 288.646 367.683L296.891 373.341C298.781 370.588 299.729 367.47 299.729 364.128H289.729ZM288.646 367.683C287.975 368.66 286.831 369.661 284.864 370.532L288.913 379.676C292.173 378.232 294.948 376.172 296.891 373.341L288.646 367.683ZM284.919 370.508C283.09 371.292 280.627 371.784 277.369 371.784V381.784C281.577 381.784 285.461 381.156 288.858 379.7L284.919 370.508ZM330.706 338.256L328.354 342.668L328.388 342.686L328.424 342.704L330.706 338.256ZM337.258 344.696L332.858 347.07L332.877 347.105L332.896 347.139L337.258 344.696ZM339.61 376V381H344.61V376H339.61ZM328.522 376H323.522V381H328.522V376ZM328.522 367.32H333.522V362.32H328.522V367.32ZM313.234 367.32V362.32H308.234V367.32H313.234ZM313.234 376V381H318.234V376H313.234ZM302.314 376H297.314V381H302.314V376ZM304.61 344.696L300.234 342.278L300.229 342.288L300.223 342.298L304.61 344.696ZM311.162 338.256L313.469 342.692L313.48 342.686L313.491 342.681L311.162 338.256ZM328.522 358.752V363.752H333.522V358.752H328.522ZM326.45 347.384L330.078 343.943V343.943L326.45 347.384ZM315.306 347.384L311.679 343.943V343.943L315.306 347.384ZM313.234 358.752H308.234V363.752H313.234V358.752ZM320.962 341.016C323.973 341.016 326.389 341.62 328.354 342.668L333.059 333.844C329.424 331.906 325.344 331.016 320.962 331.016V341.016ZM328.424 342.704C330.351 343.694 331.802 345.112 332.858 347.07L341.659 342.322C339.654 338.605 336.736 335.73 332.989 333.808L328.424 342.704ZM332.896 347.139C333.959 349.037 334.61 351.533 334.61 354.832H344.61C344.61 350.217 343.694 345.955 341.621 342.253L332.896 347.139ZM334.61 354.832V376H344.61V354.832H334.61ZM339.61 371H328.522V381H339.61V371ZM333.522 376V367.32H323.522V376H333.522ZM328.522 362.32H313.234V372.32H328.522V362.32ZM308.234 367.32V376H318.234V367.32H308.234ZM313.234 371H302.314V381H313.234V371ZM307.314 376V354.832H297.314V376H307.314ZM307.314 354.832C307.314 351.514 307.955 349.002 308.998 347.094L300.223 342.298C298.205 345.99 297.314 350.235 297.314 354.832H307.314ZM308.987 347.114C310.092 345.114 311.567 343.681 313.469 342.692L308.856 333.82C305.157 335.743 302.265 338.603 300.234 342.278L308.987 347.114ZM313.491 342.681C315.508 341.619 317.953 341.016 320.962 341.016V331.016C316.58 331.016 312.492 331.906 308.834 333.831L313.491 342.681ZM333.522 358.752V353.88H323.522V358.752H333.522ZM333.522 353.88C333.522 350.277 332.659 346.663 330.078 343.943L322.823 350.825C323.005 351.017 323.522 351.733 323.522 353.88H333.522ZM330.078 343.943C327.605 341.336 324.363 340.2 320.906 340.2V350.2C322.079 350.2 322.533 350.52 322.823 350.825L330.078 343.943ZM320.906 340.2C317.439 340.2 314.168 341.32 311.679 343.943L318.934 350.825C319.208 350.536 319.67 350.2 320.906 350.2V340.2ZM311.679 343.943C309.098 346.663 308.234 350.277 308.234 353.88H318.234C318.234 351.733 318.752 351.017 318.934 350.825L311.679 343.943ZM308.234 353.88V358.752H318.234V353.88H308.234ZM313.234 363.752H328.522V353.752H313.234V363.752Z" fill="#164644" mask="url(#path-15-outside-1_18_110)"/>
<defs>
<clipPath id="clip0_18_110">
<rect x="50" y="17" width="300" height="300" rx="150" fill="white"/>
</clipPath>
</defs>
</svg>
