<svg width="350" height="350" viewBox="0 0 350 350" fill="none" xmlns="http://www.w3.org/2000/svg">
<rect width="350" height="350" rx="40" fill="#164644"/>
<g clip-path="url(#clip0_170_620)">
<rect x="25" y="25" width="300" height="300" rx="150" fill="#164644"/>
<path d="M215.928 228.452L134.351 299.59C130.262 303.156 129.721 309.412 133.872 312.905C158.334 333.495 199.83 333.519 224.508 329.906C229.191 329.221 232.5 325.11 232.5 320.378V235.989C232.5 227.405 222.397 222.81 215.928 228.452Z" fill="#FFD4BB"/>
<path d="M121.489 123.736L85.676 234.087C84.3383 238.209 80.4979 241 76.1644 241H22.0443C15.7846 241 11.0637 235.314 12.2148 229.161L34.0252 112.578C34.722 108.853 37.4594 105.801 41.1587 104.982C71.3242 98.2975 100.882 105.784 116.695 112.46C121.06 114.303 122.952 119.23 121.489 123.736Z" fill="#FFD4BB"/>
<path d="M251.218 66.6774L245.415 34.5889C244.381 28.8706 248.422 23.478 254.201 22.8651L275.166 20.6415C276.051 20.5476 276.92 20.3358 277.75 20.0118L304.746 9.4665C307.154 8.52561 309.834 8.55437 312.222 9.54676L335.175 19.0859C341.182 21.5822 343.205 29.0558 339.76 34.5733C333.097 45.2435 329.851 53.7182 328.529 59.9216C327.282 65.7685 323.473 72.4984 317.744 74.2062L280.859 85.2007C278.09 86.0262 275.098 85.6132 272.656 84.0681L255.712 73.3485C253.346 71.8519 251.716 69.4321 251.218 66.6774Z" fill="#9AEBE8"/>
<path d="M135.095 114.169L129.688 100.522C128.339 97.1184 128.959 93.2495 131.303 90.4368L187.002 23.5982C188.901 21.3182 191.716 20 194.684 20H211.467C216.159 20 220.22 23.2623 221.232 27.8441L226.894 53.4924C227.589 56.6362 226.727 59.9218 224.579 62.32L178.93 113.287C177.36 115.04 175.223 116.182 172.895 116.515L145.806 120.385C141.228 121.039 136.799 118.468 135.095 114.169Z" fill="#FFD4BB"/>
<path d="M207.73 104.444L233.007 79.8247C236.691 76.2357 242.498 76.0274 246.43 79.343L261.987 92.4595C263.923 94.092 265.168 96.3985 265.47 98.9132L271.942 152.853C272.296 155.798 271.324 158.747 269.29 160.905L263.62 166.918C259.547 171.238 252.63 171.078 248.76 166.575L207.124 118.126C203.682 114.12 203.947 108.129 207.73 104.444Z" fill="#FF8E3C"/>
<path d="M140.917 144.404L104.04 231.199C102.762 234.207 103.034 237.65 104.77 240.42L119.407 263.776C122.628 268.917 129.647 270.028 134.299 266.134L227.203 188.364C231.854 184.471 231.996 177.367 227.504 173.291L185.701 135.358C183.371 133.244 180.182 132.35 177.093 132.944L148.232 138.494C144.962 139.123 142.219 141.338 140.917 144.404Z" fill="#9AEBE8"/>
<path d="M285.712 161.478L280.495 112.79C279.935 107.56 283.521 102.79 288.701 101.876L327.734 94.9881C329.543 94.6689 331.405 94.8541 333.116 95.5235L342.992 99.3883C348.579 101.575 350.997 108.154 348.156 113.437L323.452 159.37C322.202 161.695 320.083 163.431 317.557 164.2L298.567 169.98C292.563 171.807 286.38 167.718 285.712 161.478Z" fill="#FFD4BB"/>
<path d="M104.776 91.5596L67.1084 88.0482C59.5886 87.3472 55.5301 78.883 59.6919 72.5808L82.7318 37.6919C84.4736 35.0543 87.3597 33.3955 90.5155 33.2182L123.007 31.3929C127.205 31.157 131.103 33.5729 132.759 37.4379L139.355 52.8281C140.955 56.561 140.138 60.8906 137.288 63.7842L112.829 88.6197C110.722 90.759 107.766 91.8383 104.776 91.5596Z" fill="#FF8E3C"/>
<path d="M82.2655 259H31.9716C27.5879 259 23.7152 261.855 22.4189 266.043L6.01128 319.043C4.01947 325.477 8.82875 332 15.564 332H106C111.523 332 116 327.523 116 322V296.759C116 294.376 115.149 292.071 113.601 290.26L89.866 262.501C87.9661 260.279 85.189 259 82.2655 259Z" fill="#FF8E3C"/>
<path d="M315.062 180.377L261.645 188.993C259.599 189.323 257.706 190.28 256.228 191.733L241.625 206.084C236.186 211.429 238.491 220.651 245.806 222.808L303.118 239.708C305.901 240.528 308.903 240.1 311.346 238.533L330.61 226.174C332.785 224.779 334.336 222.596 334.937 220.083L338.291 206.054C339.049 202.886 338.216 199.547 336.059 197.106L324.148 183.628C321.877 181.058 318.448 179.831 315.062 180.377Z" fill="#FF8E3C"/>
<path d="M308.196 258.179L264.832 244.396C258.156 242.274 251.424 247.497 251.819 254.491L255.415 318.132C255.724 323.6 260.375 327.803 265.846 327.558L326.159 324.856C330.78 324.649 334.656 321.3 335.531 316.758L340.596 290.466C340.862 289.085 340.834 287.663 340.513 286.294L335.847 266.369C334.788 261.847 330.755 258.649 326.11 258.649H311.225C310.197 258.649 309.175 258.491 308.196 258.179Z" fill="#9AEBE8"/>
<path d="M30.0877 96.7418L13.521 98.2949C9.07054 98.7121 4.88369 96.1251 3.2657 91.9582L-25.2115 18.6197C-27.7567 12.065 -22.921 5 -15.8896 5H60C65.5229 5 70 9.47715 70 15V33.1092C70 36.1951 68.5753 39.1081 66.1394 41.0027L46.2236 56.4927C44.1574 58.0998 42.8036 60.453 42.4531 63.0471L39.0642 88.1246C38.4411 92.7355 34.7202 96.3075 30.0877 96.7418Z" fill="#9AEBE8"/>
</g>
<defs>
<clipPath id="clip0_170_620">
<rect x="25" y="25" width="300" height="300" rx="150" fill="white"/>
</clipPath>
</defs>
</svg>
