<svg width="400" height="400" fill="none" xmlns="http://www.w3.org/2000/svg"><rect width="400" height="400" rx="40" fill="#164644"/><g clip-path="url(#prefix__clip0_18_110)"><rect x="50" y="17" width="300" height="300" rx="150" fill="#164644"/><path d="M240.928 220.452l-81.577 71.138c-4.089 3.566-4.63 9.822-.479 13.315 24.462 20.59 65.958 20.614 90.636 17.001 4.683-.685 7.992-4.796 7.992-9.528v-84.389c0-8.584-10.103-13.179-16.572-7.537zM146.489 115.736l-35.813 110.351a10 10 0 01-9.512 6.913h-54.12c-6.26 0-10.98-5.686-9.83-11.839l21.811-116.583c.697-3.725 3.434-6.777 7.134-7.597 30.165-6.683 59.723.803 75.536 7.479 4.365 1.843 6.257 6.77 4.794 11.276z" fill="#FFD4BB"/><path d="M276.218 58.677l-5.803-32.088c-1.034-5.718 3.007-11.111 8.786-11.724l20.965-2.223a10.01 10.01 0 002.584-.63l26.996-10.546a10 10 0 017.476.08l22.953 9.54c6.007 2.496 8.03 9.97 4.585 15.487-6.663 10.67-9.909 19.145-11.231 25.349-1.247 5.847-5.056 12.576-10.785 14.284l-36.885 10.995a10 10 0 01-8.203-1.133l-16.944-10.72a9.998 9.998 0 01-4.494-6.67z" fill="#9AEBE8"/><path d="M160.095 106.169l-5.407-13.647a10 10 0 011.615-10.085l55.699-66.839A9.998 9.998 0 01219.684 12h16.783a10 10 0 019.765 7.844l5.662 25.648a9.997 9.997 0 01-2.315 8.828l-45.649 50.967a10.002 10.002 0 01-6.035 3.228l-27.089 3.87a10.001 10.001 0 01-10.711-6.216z" fill="#FFD4BB"/><path d="M232.73 96.445l25.277-24.62a10 10 0 0113.423-.482l15.557 13.117a10.002 10.002 0 013.483 6.453l6.472 53.94a10 10 0 01-2.652 8.052l-5.67 6.013c-4.073 4.32-10.99 4.16-14.86-.343l-41.636-48.449a10 10 0 01.606-13.681z" fill="#FF8E3C"/><path d="M165.917 136.404l-36.877 86.795a10 10 0 00.73 9.221l14.637 23.356c3.221 5.141 10.24 6.252 14.892 2.358l92.904-77.77c4.651-3.893 4.793-10.997.301-15.073l-41.803-37.933a10 10 0 00-8.608-2.414l-28.861 5.55a9.998 9.998 0 00-7.315 5.91z" fill="#9AEBE8"/><path d="M310.712 153.478l-5.217-48.688a10 10 0 018.206-10.914l39.033-6.888a10.001 10.001 0 015.382.535l9.876 3.865c5.587 2.186 8.005 8.766 5.164 14.049l-24.704 45.933a9.998 9.998 0 01-5.895 4.83l-18.99 5.78c-6.004 1.827-12.187-2.262-12.855-8.502z" fill="#FFD4BB"/><path d="M129.776 83.56l-37.668-3.512c-7.52-.7-11.578-9.165-7.416-15.467l23.04-34.89a10 10 0 017.784-4.473l32.491-1.825a10 10 0 019.752 6.045l6.596 15.39a10 10 0 01-2.067 10.956L137.829 80.62a10 10 0 01-8.053 2.94zM107.265 251H56.972a10 10 0 00-9.553 7.043l-16.408 53C29.02 317.477 33.83 324 40.564 324H131c5.523 0 10-4.477 10-10v-25.241c0-2.383-.851-4.688-2.399-6.499l-23.735-27.759a10 10 0 00-7.601-3.501zM340.062 172.377l-53.417 8.616a9.997 9.997 0 00-5.417 2.74l-14.603 14.351c-5.439 5.345-3.134 14.567 4.181 16.724l57.312 16.9c2.783.82 5.785.392 8.228-1.175l19.264-12.359a10 10 0 004.327-6.091l3.354-14.029a10 10 0 00-2.232-8.948l-11.911-13.478a10 10 0 00-9.086-3.251z" fill="#FF8E3C"/><path d="M333.196 250.179l-43.364-13.783c-6.676-2.122-13.408 3.101-13.013 10.095l3.596 63.641c.309 5.468 4.96 9.671 10.431 9.426l60.313-2.702a10 10 0 009.372-8.098l5.065-26.292a9.996 9.996 0 00-.083-4.172l-4.666-19.925a10 10 0 00-9.737-7.72h-14.885a9.976 9.976 0 01-3.029-.47zM55.088 88.742L38.52 90.295a10 10 0 01-10.255-6.337L-.212 10.62C-2.757 4.065 2.08-3 9.11-3H85c5.523 0 10 4.477 10 10v18.11a10 10 0 01-3.86 7.893l-19.916 15.49a10 10 0 00-3.77 6.554l-3.39 25.078a10 10 0 01-8.976 8.617z" fill="#9AEBE8"/></g><mask id="prefix__a" maskUnits="userSpaceOnUse" x="61" y="331" width="284" height="51" fill="#000"><path fill="#fff" d="M61 331h284v51H61z"/><path d="M85.04 336.016c3.697 0 6.945.747 9.745 2.24 2.837 1.456 5.02 3.603 6.552 6.44 1.568 2.8 2.352 6.179 2.352 10.136V376H92.601v-8.68H77.313V376h-10.92v-21.168c0-3.957.765-7.336 2.296-10.136 1.568-2.837 3.752-4.984 6.552-6.44 2.837-1.493 6.104-2.24 9.8-2.24zm7.56 22.736v-4.872c0-2.875-.69-5.04-2.071-6.496-1.382-1.456-3.23-2.184-5.544-2.184-2.352 0-4.22.728-5.6 2.184-1.382 1.456-2.072 3.621-2.072 6.496v4.872H92.6zm58.686-21.952V376h-11.088v-15.288h-15.12V376H113.99v-39.2h11.088v14.728h15.12V336.8h11.088zm26.245 8.568v22.064h6.328V376h-23.8v-8.568h6.384v-22.064h-6.384V336.8h23.8v8.568h-6.328zm60.985-9.352c4.629 0 8.232 1.381 10.808 4.144 2.613 2.725 3.92 6.683 3.92 11.872V376h-11.088v-23.632c0-2.352-.616-4.125-1.848-5.32-1.232-1.232-2.875-1.848-4.928-1.848-2.203 0-3.957.653-5.264 1.96-1.269 1.269-1.904 3.192-1.904 5.768V376h-11.088v-23.632c0-2.352-.579-4.125-1.736-5.32-1.12-1.232-2.669-1.848-4.648-1.848-2.128 0-3.827.653-5.096 1.96-1.269 1.269-1.904 3.192-1.904 5.768V376h-11.088v-39.2h10.752v4.368a11.38 11.38 0 014.592-3.808c1.904-.896 4.107-1.344 6.608-1.344 2.576 0 4.816.467 6.72 1.4a11.593 11.593 0 014.704 4.088c1.344-1.792 3.099-3.155 5.264-4.088 2.165-.933 4.573-1.4 7.224-1.4zm38.853 40.768c-3.174 0-6.254-.392-9.24-1.176-2.987-.784-5.414-1.829-7.28-3.136l3.64-8.176c1.754 1.157 3.789 2.091 6.104 2.8 2.314.709 4.592 1.064 6.832 1.064 4.256 0 6.384-1.064 6.384-3.192 0-1.12-.616-1.941-1.848-2.464-1.195-.56-3.136-1.139-5.824-1.736-2.95-.635-5.414-1.307-7.392-2.016a12.688 12.688 0 01-5.096-3.528c-1.419-1.605-2.128-3.771-2.128-6.496 0-2.389.653-4.536 1.96-6.44 1.306-1.941 3.248-3.472 5.824-4.592 2.613-1.12 5.805-1.68 9.576-1.68 2.576 0 5.114.299 7.616.896 2.501.56 4.704 1.4 6.608 2.52l-3.416 8.232c-3.734-2.016-7.355-3.024-10.864-3.024-2.203 0-3.808.336-4.816 1.008-1.008.635-1.512 1.475-1.512 2.52s.597 1.829 1.792 2.352c1.194.523 3.117 1.064 5.768 1.624 2.986.635 5.45 1.325 7.392 2.072 1.978.709 3.677 1.867 5.096 3.472 1.456 1.568 2.184 3.715 2.184 6.44 0 2.352-.654 4.48-1.96 6.384-1.307 1.904-3.267 3.435-5.88 4.592-2.614 1.12-5.787 1.68-9.52 1.68zm43.593-40.768c3.696 0 6.944.747 9.744 2.24 2.838 1.456 5.022 3.603 6.552 6.44 1.568 2.8 2.352 6.179 2.352 10.136V376h-11.088v-8.68h-15.288V376h-10.92v-21.168c0-3.957.766-7.336 2.296-10.136 1.568-2.837 3.752-4.984 6.552-6.44 2.838-1.493 6.104-2.24 9.8-2.24zm7.56 22.736v-4.872c0-2.875-.69-5.04-2.072-6.496-1.381-1.456-3.229-2.184-5.544-2.184-2.352 0-4.218.728-5.6 2.184-1.381 1.456-2.072 3.621-2.072 6.496v4.872h15.288z"/></mask><path d="M85.04 336.016c3.697 0 6.945.747 9.745 2.24 2.837 1.456 5.02 3.603 6.552 6.44 1.568 2.8 2.352 6.179 2.352 10.136V376H92.601v-8.68H77.313V376h-10.92v-21.168c0-3.957.765-7.336 2.296-10.136 1.568-2.837 3.752-4.984 6.552-6.44 2.837-1.493 6.104-2.24 9.8-2.24zm7.56 22.736v-4.872c0-2.875-.69-5.04-2.071-6.496-1.382-1.456-3.23-2.184-5.544-2.184-2.352 0-4.22.728-5.6 2.184-1.382 1.456-2.072 3.621-2.072 6.496v4.872H92.6zm58.686-21.952V376h-11.088v-15.288h-15.12V376H113.99v-39.2h11.088v14.728h15.12V336.8h11.088zm26.245 8.568v22.064h6.328V376h-23.8v-8.568h6.384v-22.064h-6.384V336.8h23.8v8.568h-6.328zm60.985-9.352c4.629 0 8.232 1.381 10.808 4.144 2.613 2.725 3.92 6.683 3.92 11.872V376h-11.088v-23.632c0-2.352-.616-4.125-1.848-5.32-1.232-1.232-2.875-1.848-4.928-1.848-2.203 0-3.957.653-5.264 1.96-1.269 1.269-1.904 3.192-1.904 5.768V376h-11.088v-23.632c0-2.352-.579-4.125-1.736-5.32-1.12-1.232-2.669-1.848-4.648-1.848-2.128 0-3.827.653-5.096 1.96-1.269 1.269-1.904 3.192-1.904 5.768V376h-11.088v-39.2h10.752v4.368a11.38 11.38 0 014.592-3.808c1.904-.896 4.107-1.344 6.608-1.344 2.576 0 4.816.467 6.72 1.4a11.593 11.593 0 014.704 4.088c1.344-1.792 3.099-3.155 5.264-4.088 2.165-.933 4.573-1.4 7.224-1.4zm38.853 40.768c-3.174 0-6.254-.392-9.24-1.176-2.987-.784-5.414-1.829-7.28-3.136l3.64-8.176c1.754 1.157 3.789 2.091 6.104 2.8 2.314.709 4.592 1.064 6.832 1.064 4.256 0 6.384-1.064 6.384-3.192 0-1.12-.616-1.941-1.848-2.464-1.195-.56-3.136-1.139-5.824-1.736-2.95-.635-5.414-1.307-7.392-2.016a12.688 12.688 0 01-5.096-3.528c-1.419-1.605-2.128-3.771-2.128-6.496 0-2.389.653-4.536 1.96-6.44 1.306-1.941 3.248-3.472 5.824-4.592 2.613-1.12 5.805-1.68 9.576-1.68 2.576 0 5.114.299 7.616.896 2.501.56 4.704 1.4 6.608 2.52l-3.416 8.232c-3.734-2.016-7.355-3.024-10.864-3.024-2.203 0-3.808.336-4.816 1.008-1.008.635-1.512 1.475-1.512 2.52s.597 1.829 1.792 2.352c1.194.523 3.117 1.064 5.768 1.624 2.986.635 5.45 1.325 7.392 2.072 1.978.709 3.677 1.867 5.096 3.472 1.456 1.568 2.184 3.715 2.184 6.44 0 2.352-.654 4.48-1.96 6.384-1.307 1.904-3.267 3.435-5.88 4.592-2.614 1.12-5.787 1.68-9.52 1.68zm43.593-40.768c3.696 0 6.944.747 9.744 2.24 2.838 1.456 5.022 3.603 6.552 6.44 1.568 2.8 2.352 6.179 2.352 10.136V376h-11.088v-8.68h-15.288V376h-10.92v-21.168c0-3.957.766-7.336 2.296-10.136 1.568-2.837 3.752-4.984 6.552-6.44 2.838-1.493 6.104-2.24 9.8-2.24zm7.56 22.736v-4.872c0-2.875-.69-5.04-2.072-6.496-1.381-1.456-3.229-2.184-5.544-2.184-2.352 0-4.218.728-5.6 2.184-1.381 1.456-2.072 3.621-2.072 6.496v4.872h15.288z" fill="#FFD4BB"/><path d="M94.785 338.256l-2.353 4.412.035.018.035.018 2.283-4.448zm6.552 6.44l-4.4 2.374.018.035.02.034 4.362-2.443zM103.689 376v5h5v-5h-5zm-11.088 0h-5v5h5v-5zm0-8.68h5v-5h-5v5zm-15.288 0v-5h-5v5h5zm0 8.68v5h5v-5h-5zm-10.92 0h-5v5h5v-5zm2.296-31.304l-4.377-2.418-.005.01-.006.01 4.388 2.398zm6.552-6.44l2.306 4.436.011-.006.011-.005-2.328-4.425zm17.36 20.496v5h5v-5h-5zm-2.072-11.368l3.627-3.441-3.627 3.441zm-11.144 0l-3.628-3.441 3.628 3.441zm-2.072 11.368h-5v5h5v-5zm7.728-17.736c3.01 0 5.426.604 7.39 1.652l4.707-8.824c-3.636-1.938-7.716-2.828-12.097-2.828v10zm7.46 1.688c1.928.99 3.379 2.408 4.435 4.366l8.801-4.748c-2.005-3.717-4.922-6.592-8.67-8.514l-4.565 8.896zm4.473 4.435c1.063 1.898 1.715 4.394 1.715 7.693h10c0-4.615-.917-8.877-2.99-12.579l-8.725 4.886zm1.715 7.693V376h10v-21.168h-10zm5 16.168H92.601v10h11.088v-10zm-6.088 5v-8.68h-10V376h10zm-5-13.68H77.313v10H92.6v-10zm-20.288 5V376h10v-8.68h-10zm5 3.68h-10.92v10h10.92v-10zm-5.92 5v-21.168h-10V376h10zm0-21.168c0-3.318.64-5.83 1.683-7.738l-8.775-4.796c-2.018 3.692-2.908 7.937-2.908 12.534h10zm1.672-7.718c1.105-2 2.58-3.433 4.482-4.422l-4.613-8.872c-3.698 1.923-6.591 4.783-8.622 8.458l8.753 4.836zm4.504-4.433c2.017-1.062 4.462-1.665 7.472-1.665v-10c-4.383 0-8.471.89-12.13 2.815l4.658 8.85zm20.032 16.071v-4.872h-10v4.872h10zm0-4.872c0-3.603-.864-7.217-3.445-9.937l-7.255 6.882c.182.192.7.908.7 3.055h10zm-3.445-9.937c-2.473-2.607-5.715-3.743-9.171-3.743v10c1.172 0 1.626.32 1.916.625l7.255-6.882zm-9.171-3.743c-3.468 0-6.74 1.12-9.228 3.743l7.255 6.882c.274-.289.736-.625 1.973-.625v-10zm-9.228 3.743c-2.58 2.72-3.444 6.334-3.444 9.937h10c0-2.147.517-2.863.699-3.055l-7.255-6.882zm-3.444 9.937v4.872h10v-4.872h-10zm5 9.872H92.6v-10H77.313v10zm73.973-26.952h5v-5h-5v5zm0 39.2v5h5v-5h-5zm-11.088 0h-5v5h5v-5zm0-15.288h5v-5h-5v5zm-15.12 0v-5h-5v5h5zm0 15.288v5h5v-5h-5zm-11.088 0h-5v5h5v-5zm0-39.2v-5h-5v5h5zm11.088 0h5v-5h-5v5zm0 14.728h-5v5h5v-5zm15.12 0v5h5v-5h-5zm0-14.728v-5h-5v5h5zm6.088 0V376h10v-39.2h-10zm5 34.2h-11.088v10h11.088v-10zm-6.088 5v-15.288h-10V376h10zm-5-20.288h-15.12v10h15.12v-10zm-20.12 5V376h10v-15.288h-10zm5 10.288H113.99v10h11.088v-10zm-6.088 5v-39.2h-10V376h10zm-5-34.2h11.088v-10H113.99v10zm6.088-5v14.728h10V336.8h-10zm5 19.728h15.12v-10h-15.12v10zm20.12-5V336.8h-10v14.728h10zm-5-9.728h11.088v-10h-11.088v10zm37.333 3.568v-5h-5v5h5zm0 22.064h-5v5h5v-5zm6.328 0h5v-5h-5v5zm0 8.568v5h5v-5h-5zm-23.8 0h-5v5h5v-5zm0-8.568v-5h-5v5h5zm6.384 0v5h5v-5h-5zm0-22.064h5v-5h-5v5zm-6.384 0h-5v5h5v-5zm0-8.568v-5h-5v5h5zm23.8 0h5v-5h-5v5zm0 8.568v5h5v-5h-5zm-11.328 0v22.064h10v-22.064h-10zm5 27.064h6.328v-10h-6.328v10zm1.328-5V376h10v-8.568h-10zm5 3.568h-23.8v10h23.8v-10zm-18.8 5v-8.568h-10V376h10zm-5-3.568h6.384v-10h-6.384v10zm11.384-5v-22.064h-10v22.064h10zm-5-27.064h-6.384v10h6.384v-10zm-1.384 5V336.8h-10v8.568h10zm-5-3.568h23.8v-10h-23.8v10zm18.8-5v8.568h10V336.8h-10zm5 3.568h-6.328v10h6.328v-10zm65.465-.208l-3.657 3.41.024.025.024.026 3.609-3.461zm3.92 35.84v5h5v-5h-5zm-11.088 0h-5v5h5v-5zm-1.848-28.952l-3.536 3.536.028.027.027.027 3.481-3.59zm-10.192.112l-3.536-3.536 3.536 3.536zM228.212 376v5h5v-5h-5zm-11.088 0h-5v5h5v-5zm-1.736-28.952l-3.7 3.363.054.059.055.057 3.591-3.479zm-9.744.112l3.536 3.536.025-.026.025-.026-3.586-3.484zM203.74 376v5h5v-5h-5zm-11.088 0h-5v5h5v-5zm0-39.2v-5h-5v5h5zm10.752 0h5v-5h-5v5zm0 4.368h-5v15.659l9.075-12.761-4.075-2.898zm4.592-3.808l2.09 4.542.019-.009.02-.009-2.129-4.524zm13.328.056l-2.201 4.49.017.008.018.008 2.166-4.506zm4.704 4.088l-4.16 2.773 3.92 5.881 4.24-5.654-4-3zm5.264-4.088l1.979 4.592-1.979-4.592zm7.224 3.6c3.579 0 5.728 1.028 7.151 2.554l7.314-6.82c-3.729-3.999-8.785-5.734-14.465-5.734v10zm7.199 2.605c1.431 1.492 2.529 4.021 2.529 8.411h10c0-5.989-1.515-11.374-5.311-15.333l-7.218 6.922zm2.529 8.411V376h10v-23.968h-10zm5 18.968h-11.088v10h11.088v-10zm-6.088 5v-23.632h-10V376h10zm0-23.632c0-3.19-.848-6.466-3.367-8.91l-6.962 7.18c.004.003.068.057.144.277.085.245.185.7.185 1.453h10zm-3.312-8.856c-2.336-2.335-5.339-3.312-8.464-3.312v10c.982 0 1.264.255 1.392.384l7.072-7.072zm-8.464-3.312c-3.256 0-6.378 1.003-8.8 3.424l7.072 7.072c.192-.193.578-.496 1.728-.496v-10zm-8.8 3.424c-2.549 2.55-3.368 5.982-3.368 9.304h10c0-.893.112-1.467.224-1.807.104-.315.2-.41.216-.425l-7.072-7.072zm-3.368 9.304V376h10v-23.072h-10zm5 18.072h-11.088v10h11.088v-10zm-6.088 5v-23.632h-10V376h10zm0-23.632c0-3.11-.767-6.344-3.145-8.799l-7.182 6.958c.001.001.013.013.035.05.022.038.061.115.105.248.089.275.187.763.187 1.543h10zm-3.036-8.683c-2.246-2.471-5.25-3.485-8.348-3.485v10c.472 0 .711.073.799.108a.351.351 0 01.149.103l7.4-6.726zm-8.348-3.485c-3.233 0-6.313 1.037-8.682 3.476l7.172 6.968c.169-.174.487-.444 1.51-.444v-10zm-8.632 3.424c-2.549 2.55-3.368 5.982-3.368 9.304h10c0-.893.112-1.467.224-1.807.104-.315.2-.41.216-.425l-7.072-7.072zm-3.368 9.304V376h10v-23.072h-10zm5 18.072h-11.088v10h11.088v-10zm-6.088 5v-39.2h-10V376h10zm-5-34.2h10.752v-10h-10.752v10zm5.752-5v4.368h10V336.8h-10zm9.075 7.266a6.39 6.39 0 012.607-2.164l-4.18-9.084a16.378 16.378 0 00-6.577 5.452l8.15 5.796zm2.646-2.182c1.124-.529 2.576-.868 4.479-.868v-10c-3.1 0-6.053.557-8.737 1.82l4.258 9.048zm4.479-.868c1.974 0 3.432.357 4.519.89l4.402-8.98c-2.721-1.333-5.743-1.91-8.921-1.91v10zm4.554.906a6.6 6.6 0 012.71 2.355l8.32-5.547a16.585 16.585 0 00-6.698-5.82l-4.332 9.012zm10.87 2.582c.793-1.057 1.835-1.889 3.243-2.496l-3.958-9.184c-2.923 1.26-5.39 3.153-7.285 5.68l8 6zm3.243-2.496c1.467-.633 3.191-.992 5.245-.992v-10c-3.247 0-6.34.574-9.203 1.808l3.958 9.184zm34.858 33.6l1.269-4.836-1.269 4.836zm-7.28-3.136l-4.568-2.034-1.677 3.766 3.377 2.364 2.868-4.096zm3.64-8.176l2.753-4.174-4.923-3.247-2.398 5.387 4.568 2.034zm6.104 2.8l1.465-4.781-1.465 4.781zm11.368-4.592l-2.123 4.527.085.04.085.036 1.953-4.603zm-5.824-1.736l1.084-4.881-.016-.004-.016-.003-1.052 4.888zm-7.392-2.016l-1.766 4.678.039.015.039.014 1.688-4.707zm-5.264-16.464l4.122 2.829.013-.018.013-.019-4.148-2.792zm5.824-4.592l-1.97-4.596-.012.005-.012.006 1.994 4.585zm17.192-.784l-1.162 4.863.035.008.034.008 1.093-4.879zm6.608 2.52l4.618 1.916 1.668-4.019-3.751-2.207-2.535 4.31zm-3.416 8.232l-2.376 4.4 4.872 2.63 2.122-5.114-4.618-1.916zm-15.68-2.016l2.664 4.231.055-.035.054-.036-2.773-4.16zm.28 4.872l-2.004 4.581 2.004-4.581zm5.768 1.624l1.039-4.891-.006-.001-1.033 4.892zm7.392 2.072l-1.795 4.667.053.02.054.02 1.688-4.707zm5.096 3.472l-3.747 3.311.041.046.042.045 3.664-3.402zm.224 12.824l-4.123-2.829 4.123 2.829zm-5.88 4.592l1.969 4.596.028-.012.027-.012-2.024-4.572zm-9.52-3.32c-2.757 0-5.41-.34-7.971-1.012l-2.539 9.672c3.413.896 6.92 1.34 10.51 1.34v-10zm-7.971-1.012c-2.604-.684-4.438-1.526-5.682-2.396l-5.735 8.192c2.49 1.743 5.509 2.992 8.878 3.876l2.539-9.672zm-3.982 3.734l3.64-8.176-9.135-4.068-3.64 8.176 9.135 4.068zm-3.68-6.036c2.208 1.456 4.689 2.578 7.392 3.407l2.93-9.562c-1.927-.59-3.515-1.334-4.816-2.193l-5.506 8.348zm7.392 3.407c2.751.843 5.522 1.283 8.297 1.283v-10c-1.705 0-3.489-.269-5.367-.845l-2.93 9.562zm8.297 1.283c2.383 0 4.915-.271 7.024-1.326 1.125-.562 2.269-1.418 3.121-2.696.873-1.309 1.239-2.763 1.239-4.17h-10c0-.343.1-.866.44-1.377.32-.48.666-.671.728-.701.041-.021-.111.06-.581.139-.457.076-1.102.131-1.971.131v10zm11.384-8.192c0-1.538-.445-3.1-1.462-4.456-.975-1.299-2.246-2.107-3.434-2.611l-3.905 9.206c.044.019-.303-.117-.661-.595a2.653 2.653 0 01-.538-1.544h10zm-4.726-6.991c-1.721-.807-4.115-1.479-6.862-2.09l-2.169 9.762c2.629.584 4.118 1.069 4.786 1.382l4.245-9.054zm-6.894-2.097c-2.818-.607-5.054-1.224-6.757-1.835l-3.375 9.414c2.254.808 4.947 1.534 8.028 2.197l2.104-9.776zm-6.679-1.806a7.69 7.69 0 01-3.115-2.161l-7.493 6.622a17.697 17.697 0 007.077 4.895l3.531-9.356zm-3.115-2.161c-.41-.464-.874-1.337-.874-3.185h-10c0 3.603.954 7.06 3.381 9.807l7.493-6.622zm-.874-3.185c0-1.416.368-2.57 1.082-3.611l-8.245-5.658c-1.899 2.767-2.837 5.907-2.837 9.269h10zm1.108-3.648c.675-1.004 1.791-1.982 3.669-2.799l-3.987-9.17c-3.273 1.423-6.041 3.507-7.978 6.385l8.296 5.584zm3.645-2.788c1.824-.782 4.304-1.276 7.607-1.276v-10c-4.239 0-8.143.626-11.546 2.084l3.939 9.192zm7.607-1.276c2.185 0 4.334.253 6.454.759l2.323-9.726a37.638 37.638 0 00-8.777-1.033v10zm6.523.775c2.074.464 3.775 1.133 5.166 1.951l5.07-8.62c-2.418-1.422-5.122-2.433-8.051-3.089l-2.185 9.758zm3.082-4.275l-3.416 8.232 9.237 3.832 3.416-8.232-9.237-3.832zm3.578 5.748c-4.311-2.328-8.744-3.624-13.239-3.624v10c2.523 0 5.333.72 8.488 2.424l4.751-8.8zm-13.239-3.624c-2.492 0-5.327.339-7.59 1.848l5.547 8.32c-.178.119-.175.059.211-.022.374-.078.965-.146 1.832-.146v-10zm-7.48 1.777c-2.223 1.399-3.848 3.723-3.848 6.751h10c0 .32-.089.749-.335 1.158-.229.383-.471.542-.489.553l-5.328-8.462zm-3.848 6.751a7.2 7.2 0 001.47 4.402c.954 1.252 2.185 2.035 3.318 2.531l4.008-9.162c-.062-.027.272.103.629.571.406.533.575 1.157.575 1.658h-10zm4.788 6.933c1.688.738 4.03 1.363 6.738 1.935l2.067-9.784c-2.593-.548-4.096-1.006-4.797-1.313l-4.008 9.162zm6.732 1.934c2.837.603 5.026 1.228 6.637 1.848l3.59-9.334c-2.272-.873-5.011-1.629-8.148-2.296l-2.079 9.782zm6.744 1.888c1.17.419 2.165 1.089 3.037 2.076l7.493-6.622c-1.965-2.224-4.368-3.868-7.155-4.868l-3.375 9.414zm3.12 2.167c.381.411.848 1.216.848 3.038h10c0-3.629-.989-7.117-3.52-9.842l-7.328 6.804zm.848 3.038c0 1.362-.359 2.5-1.083 3.555l8.245 5.658c1.89-2.753 2.838-5.871 2.838-9.213h-10zm-1.083 3.555c-.671.977-1.815 1.978-3.782 2.849l4.049 9.144c3.26-1.444 6.035-3.504 7.978-6.335l-8.245-5.658zm-3.727 2.825c-1.829.784-4.292 1.276-7.55 1.276v10c4.208 0 8.092-.628 11.489-2.084l-3.939-9.192zm45.787-32.252l-2.352 4.412.034.018.036.018 2.282-4.448zm6.552 6.44l-4.4 2.374.019.035.019.034 4.362-2.443zM339.61 376v5h5v-5h-5zm-11.088 0h-5v5h5v-5zm0-8.68h5v-5h-5v5zm-15.288 0v-5h-5v5h5zm0 8.68v5h5v-5h-5zm-10.92 0h-5v5h5v-5zm2.296-31.304l-4.376-2.418-.005.01-.006.01 4.387 2.398zm6.552-6.44l2.307 4.436.011-.006.011-.005-2.329-4.425zm17.36 20.496v5h5v-5h-5zm-2.072-11.368l3.628-3.441-3.628 3.441zm-11.144 0l-3.627-3.441 3.627 3.441zm-2.072 11.368h-5v5h5v-5zm7.728-17.736c3.011 0 5.427.604 7.392 1.652l4.705-8.824c-3.635-1.938-7.715-2.828-12.097-2.828v10zm7.462 1.688c1.927.99 3.378 2.408 4.434 4.366l8.801-4.748c-2.005-3.717-4.923-6.592-8.67-8.514l-4.565 8.896zm4.472 4.435c1.063 1.898 1.714 4.394 1.714 7.693h10c0-4.615-.916-8.877-2.989-12.579l-8.725 4.886zm1.714 7.693V376h10v-21.168h-10zm5 16.168h-11.088v10h11.088v-10zm-6.088 5v-8.68h-10V376h10zm-5-13.68h-15.288v10h15.288v-10zm-20.288 5V376h10v-8.68h-10zm5 3.68h-10.92v10h10.92v-10zm-5.92 5v-21.168h-10V376h10zm0-21.168c0-3.318.641-5.83 1.684-7.738l-8.775-4.796c-2.018 3.692-2.909 7.937-2.909 12.534h10zm1.673-7.718c1.105-2 2.58-3.433 4.482-4.422l-4.613-8.872c-3.699 1.923-6.591 4.783-8.622 8.458l8.753 4.836zm4.504-4.433c2.017-1.062 4.462-1.665 7.471-1.665v-10c-4.382 0-8.47.89-12.128 2.815l4.657 8.85zm20.031 16.071v-4.872h-10v4.872h10zm0-4.872c0-3.603-.863-7.217-3.444-9.937l-7.255 6.882c.182.192.699.908.699 3.055h10zm-3.444-9.937c-2.473-2.607-5.715-3.743-9.172-3.743v10c1.173 0 1.627.32 1.917.625l7.255-6.882zm-9.172-3.743c-3.467 0-6.738 1.12-9.227 3.743l7.255 6.882c.274-.289.736-.625 1.972-.625v-10zm-9.227 3.743c-2.581 2.72-3.445 6.334-3.445 9.937h10c0-2.147.518-2.863.7-3.055l-7.255-6.882zm-3.445 9.937v4.872h10v-4.872h-10zm5 9.872h15.288v-10h-15.288v10z" fill="#164644" mask="url(#prefix__a)"/><defs><clipPath id="prefix__clip0_18_110"><rect x="50" y="17" width="300" height="300" rx="150" fill="#fff"/></clipPath></defs></svg>